<mxfile host="app.diagrams.net" agent="Mozilla/5.0 (Macintosh; Intel Mac OS X 10.15; rv:141.0) Gecko/20100101 Firefox/141.0" version="28.0.6">
  <diagram name="Page-1" id="caCLWF80hUg_LGwv7Qmx">
    <mxGraphModel dx="1234" dy="745" grid="1" gridSize="10" guides="1" tooltips="1" connect="1" arrows="1" fold="1" page="1" pageScale="1" pageWidth="850" pageHeight="1100" math="0" shadow="0">
      <root>
        <mxCell id="0" />
        <mxCell id="1" parent="0" />
        <mxCell id="NXxEusLK-cyeXZ6SirKl-8" value="" style="edgeStyle=orthogonalEdgeStyle;rounded=0;orthogonalLoop=1;jettySize=auto;html=1;" edge="1" parent="1" source="NXxEusLK-cyeXZ6SirKl-4" target="NXxEusLK-cyeXZ6SirKl-7">
          <mxGeometry relative="1" as="geometry" />
        </mxCell>
        <mxCell id="NXxEusLK-cyeXZ6SirKl-14" style="edgeStyle=orthogonalEdgeStyle;rounded=0;orthogonalLoop=1;jettySize=auto;html=1;entryX=0.5;entryY=0;entryDx=0;entryDy=0;" edge="1" parent="1" source="NXxEusLK-cyeXZ6SirKl-4" target="NXxEusLK-cyeXZ6SirKl-9">
          <mxGeometry relative="1" as="geometry" />
        </mxCell>
        <mxCell id="NXxEusLK-cyeXZ6SirKl-4" value="&lt;font style=&quot;font-size: 24px;&quot;&gt;A&lt;/font&gt;" style="ellipse;whiteSpace=wrap;html=1;aspect=fixed;" vertex="1" parent="1">
          <mxGeometry x="140" y="230" width="80" height="80" as="geometry" />
        </mxCell>
        <mxCell id="NXxEusLK-cyeXZ6SirKl-13" style="edgeStyle=orthogonalEdgeStyle;rounded=0;orthogonalLoop=1;jettySize=auto;html=1;entryX=0.5;entryY=1;entryDx=0;entryDy=0;" edge="1" parent="1" source="NXxEusLK-cyeXZ6SirKl-5" target="NXxEusLK-cyeXZ6SirKl-7">
          <mxGeometry relative="1" as="geometry" />
        </mxCell>
        <mxCell id="NXxEusLK-cyeXZ6SirKl-15" style="edgeStyle=orthogonalEdgeStyle;rounded=0;orthogonalLoop=1;jettySize=auto;html=1;entryX=0.5;entryY=1;entryDx=0;entryDy=0;" edge="1" parent="1" source="NXxEusLK-cyeXZ6SirKl-5" target="NXxEusLK-cyeXZ6SirKl-9">
          <mxGeometry relative="1" as="geometry" />
        </mxCell>
        <mxCell id="NXxEusLK-cyeXZ6SirKl-5" value="&lt;font style=&quot;font-size: 24px;&quot;&gt;C&lt;/font&gt;" style="ellipse;whiteSpace=wrap;html=1;aspect=fixed;" vertex="1" parent="1">
          <mxGeometry x="140" y="440" width="80" height="80" as="geometry" />
        </mxCell>
        <mxCell id="NXxEusLK-cyeXZ6SirKl-10" value="" style="edgeStyle=orthogonalEdgeStyle;rounded=0;orthogonalLoop=1;jettySize=auto;html=1;" edge="1" parent="1" source="NXxEusLK-cyeXZ6SirKl-7" target="NXxEusLK-cyeXZ6SirKl-9">
          <mxGeometry relative="1" as="geometry" />
        </mxCell>
        <mxCell id="NXxEusLK-cyeXZ6SirKl-7" value="" style="whiteSpace=wrap;html=1;" vertex="1" parent="1">
          <mxGeometry x="310" y="350" width="120" height="60" as="geometry" />
        </mxCell>
        <mxCell id="NXxEusLK-cyeXZ6SirKl-12" value="" style="edgeStyle=orthogonalEdgeStyle;rounded=0;orthogonalLoop=1;jettySize=auto;html=1;" edge="1" parent="1" source="NXxEusLK-cyeXZ6SirKl-9" target="NXxEusLK-cyeXZ6SirKl-22">
          <mxGeometry relative="1" as="geometry">
            <mxPoint x="770" y="380" as="targetPoint" />
          </mxGeometry>
        </mxCell>
        <mxCell id="NXxEusLK-cyeXZ6SirKl-9" value="" style="whiteSpace=wrap;html=1;" vertex="1" parent="1">
          <mxGeometry x="550" y="350" width="120" height="60" as="geometry" />
        </mxCell>
        <mxCell id="NXxEusLK-cyeXZ6SirKl-17" value="" style="shape=image;html=1;verticalAlign=top;verticalLabelPosition=bottom;labelBackgroundColor=#ffffff;imageAspect=0;aspect=fixed;image=https://icons.diagrams.net/icon-cache1/User_Interface-2098/UI_minus_remove_delete_cancel_negative-1462.svg" vertex="1" parent="1">
          <mxGeometry x="380" y="430" width="32" height="32" as="geometry" />
        </mxCell>
        <mxCell id="NXxEusLK-cyeXZ6SirKl-18" value="" style="shape=image;html=1;verticalAlign=top;verticalLabelPosition=bottom;labelBackgroundColor=#ffffff;imageAspect=0;aspect=fixed;image=https://icons.diagrams.net/icon-cache1/User_Interface-2098/UI_minus_remove_delete_cancel_negative-1462.svg" vertex="1" parent="1">
          <mxGeometry x="470" y="342" width="32" height="32" as="geometry" />
        </mxCell>
        <mxCell id="NXxEusLK-cyeXZ6SirKl-19" value="" style="shape=image;html=1;verticalAlign=top;verticalLabelPosition=bottom;labelBackgroundColor=#ffffff;imageAspect=0;aspect=fixed;image=https://icons.diagrams.net/icon-cache1/User_Interface-2098/UI_plus_add_new_increase_positive-1440.svg" vertex="1" parent="1">
          <mxGeometry x="380" y="290" width="32" height="32" as="geometry" />
        </mxCell>
        <mxCell id="NXxEusLK-cyeXZ6SirKl-20" value="" style="shape=image;html=1;verticalAlign=top;verticalLabelPosition=bottom;labelBackgroundColor=#ffffff;imageAspect=0;aspect=fixed;image=https://icons.diagrams.net/icon-cache1/User_Interface-2098/UI_plus_add_new_increase_positive-1440.svg" vertex="1" parent="1">
          <mxGeometry x="620" y="290" width="32" height="32" as="geometry" />
        </mxCell>
        <mxCell id="NXxEusLK-cyeXZ6SirKl-21" value="" style="shape=image;html=1;verticalAlign=top;verticalLabelPosition=bottom;labelBackgroundColor=#ffffff;imageAspect=0;aspect=fixed;image=https://icons.diagrams.net/icon-cache1/User_Interface-2098/UI_plus_add_new_increase_positive-1440.svg" vertex="1" parent="1">
          <mxGeometry x="620" y="430" width="32" height="32" as="geometry" />
        </mxCell>
        <mxCell id="NXxEusLK-cyeXZ6SirKl-22" value="" style="shape=image;html=1;verticalAlign=top;verticalLabelPosition=bottom;labelBackgroundColor=#ffffff;imageAspect=0;aspect=fixed;image=https://icons.diagrams.net/icon-cache1/Emoji__line_-2331/emoji_31-876.svg" vertex="1" parent="1">
          <mxGeometry x="830" y="330" width="100" height="100" as="geometry" />
        </mxCell>
        <mxCell id="NXxEusLK-cyeXZ6SirKl-24" value="" style="shape=image;html=1;verticalAlign=top;verticalLabelPosition=bottom;labelBackgroundColor=#ffffff;imageAspect=0;aspect=fixed;image=https://icons.diagrams.net/icon-cache1/User_Interface-2098/UI_plus_add_new_increase_positive-1440.svg" vertex="1" parent="1">
          <mxGeometry x="740" y="342" width="32" height="32" as="geometry" />
        </mxCell>
        <mxCell id="NXxEusLK-cyeXZ6SirKl-28" value="" style="shape=image;html=1;verticalAlign=top;verticalLabelPosition=bottom;labelBackgroundColor=#ffffff;imageAspect=0;aspect=fixed;image=https://icons.diagrams.net/icon-cache1/CSS_Vol_2-2665/play-stop-o-565.svg" vertex="1" parent="1">
          <mxGeometry x="340" y="350" width="60" height="60" as="geometry" />
        </mxCell>
        <mxCell id="NXxEusLK-cyeXZ6SirKl-29" value="" style="shape=image;html=1;verticalAlign=top;verticalLabelPosition=bottom;labelBackgroundColor=#ffffff;imageAspect=0;aspect=fixed;image=https://icons.diagrams.net/icon-cache1/Boxicons_Solid_Vol_2-2639/bxs-error-alt-1038.svg" vertex="1" parent="1">
          <mxGeometry x="580" y="350" width="60" height="60" as="geometry" />
        </mxCell>
      </root>
    </mxGraphModel>
  </diagram>
</mxfile>
